<?xml version="1.0"?>
<svg xmlns="http://www.w3.org/2000/svg" xmlns:xlink="http://www.w3.org/1999/xlink" width="500" zoomAndPan="magnify" viewBox="0 0 375 374.999991" height="500" preserveAspectRatio="xMidYMid meet" version="1.2" style="background-color:transparent;">
  <defs>
    <clipPath id="7b902af68e">
      <path d="M 78.363281 11 L 296.613281 11 L 296.613281 364 L 78.363281 364 Z M 78.363281 11 "/>
    </clipPath>
    <clipPath id="576ff9c300">
      <path d="M 119.820312 79 L 200 79 L 200 119.351562 L 119.820312 119.351562 Z M 119.820312 79 "/>
    </clipPath>
  </defs>
  <g id="5090c4c057">
    <rect x="0" width="375" y="0" height="374.999991" style="fill:none;fill-opacity:1;stroke:none;" fill="none"/>
    <rect x="0" width="375" y="0" height="374.999991" style="fill:none;fill-opacity:1;stroke:none;" fill="none"/>
    <g clip-rule="nonzero" clip-path="url(#7b902af68e)">
      <path style=" stroke:none;fill-rule:nonzero;fill:#333333;fill-opacity:1;" d="M 296 17.101562 C 295.992188 16.914062 296 16.722656 296 16.535156 C 296 13.640625 293.546875 11.179688 290.644531 11.179688 L 84.246094 11.179688 C 81.351562 11.179688 78.890625 13.632812 78.890625 16.535156 L 78.890625 316.382812 C 78.890625 330.164062 78.335938 344.074219 78.890625 357.847656 C 78.898438 358.035156 78.890625 358.222656 78.890625 358.410156 C 78.890625 361.304688 81.34375 363.765625 84.246094 363.765625 L 290.644531 363.765625 C 292.285156 363.765625 293.53125 363.152344 294.394531 362.226562 C 295.359375 361.367188 296 360.097656 296 358.410156 L 296 58.5625 C 296 44.78125 296.554688 30.871094 296 17.101562 Z M 220.789062 353.054688 L 89.601562 353.054688 L 89.601562 30.492188 C 89.601562 27.703125 89.800781 24.773438 89.820312 21.890625 L 285.292969 21.890625 L 285.292969 316.382812 C 285.292969 328.566406 284.863281 340.855469 285.144531 353.054688 Z M 220.789062 353.054688 "/>
    </g>
    <path style=" stroke:none;fill-rule:nonzero;fill:#333333;fill-opacity:1;" d="M 249.726562 169.765625 C 240.371094 169.730469 232.492188 177.753906 232.53125 187.074219 C 232.566406 196.429688 240.3125 204.382812 249.726562 204.382812 C 258.917969 204.382812 265.824219 197.195312 266.8125 188.460938 C 266.898438 188.035156 266.941406 187.574219 266.921875 187.074219 C 266.941406 186.578125 266.898438 186.121094 266.8125 185.695312 C 265.828125 176.941406 258.917969 169.800781 249.726562 169.765625 Z M 243.238281 187.074219 C 243.238281 178.554688 255.875 178.589844 256.214844 187.074219 C 255.875 195.546875 243.238281 195.597656 243.238281 187.074219 Z M 243.238281 187.074219 "/>
    <path style="fill:none;stroke-width:14;stroke-linecap:butt;stroke-linejoin:miter;stroke:#333333;stroke-opacity:1;stroke-miterlimit:4;" d="M 0.00106638 6.999253 L 139.162537 6.999253 " transform="matrix(0.00000000130753,-0.749158,0.749158,0.00000000130753,244.744736,336.129705)"/>
    <path style="fill:none;stroke-width:14;stroke-linecap:butt;stroke-linejoin:miter;stroke:#333333;stroke-opacity:1;stroke-miterlimit:4;" d="M -0.000425211 6.999698 L 86.478806 6.999698 " transform="matrix(0,-0.745934,0.745934,0,154.606811,80.39812)"/>
    <path style="fill:none;stroke-width:14;stroke-linecap:butt;stroke-linejoin:miter;stroke:#333333;stroke-opacity:1;stroke-miterlimit:4;" d="M 0.00133525 7.0019 L 135.980511 7.0019 " transform="matrix(0,-0.75,0.75,0,119.869669,219.497095)"/>
    <path style="fill:none;stroke-width:14;stroke-linecap:butt;stroke-linejoin:miter;stroke:#333333;stroke-opacity:1;stroke-miterlimit:4;" d="M -0.000895031 7.000222 L 98.582445 7.000222 " transform="matrix(-0.75,0,0,-0.75,193.753235,164.226728)"/>
    <g clip-rule="nonzero" clip-path="url(#576ff9c300)">
      <path style=" stroke:none;fill-rule:nonzero;fill:#333333;fill-opacity:1;" d="M 199.867188 119.230469 L 189.25 119.230469 C 189.25 103.023438 176.0625 89.835938 159.855469 89.835938 C 143.652344 89.835938 130.464844 103.023438 130.464844 119.230469 L 119.84375 119.230469 C 119.84375 107.023438 125.273438 95.65625 134.984375 87.875 C 140.804688 83.214844 147.851562 80.292969 155.261719 79.472656 C 167.632812 78.101562 179.515625 82.304688 188.148438 90.9375 C 195.703125 98.496094 199.867188 108.542969 199.867188 119.230469 Z M 199.867188 119.230469 "/>
    </g>
    <path style="fill:none;stroke-width:14;stroke-linecap:butt;stroke-linejoin:miter;stroke:#333333;stroke-opacity:1;stroke-miterlimit:4;" d="M -0.00137389 7.000654 L 135.946552 7.000654 " transform="matrix(0,-0.75,0.75,0,189.245603,219.49897)"/>
    <path style="fill:none;stroke-width:14;stroke-linecap:butt;stroke-linejoin:miter;stroke:#333333;stroke-opacity:1;stroke-miterlimit:4;" d="M -0.00180645 7.000276 L 61.503406 7.000276 " transform="matrix(0.75,-0.000000000000003441,0.000000000000003441,0.75,81.681042,185.960731)"/>
    <path style="fill:none;stroke-width:14;stroke-linecap:butt;stroke-linejoin:miter;stroke:#333333;stroke-opacity:1;stroke-miterlimit:4;" d="M -0.000412711 7.00237 L 50.853757 7.00237 " transform="matrix(0.75,-0.000000000000003348,0.000000000000003348,0.75,249.996403,292.14666)"/>
  </g>
</svg>
