<?xml version="1.0"?>
<svg xmlns="http://www.w3.org/2000/svg" xmlns:xlink="http://www.w3.org/1999/xlink" width="500" zoomAndPan="magnify" viewBox="0 0 375 374.999991" height="500" preserveAspectRatio="xMidYMid meet" version="1.2" style="background-color:transparent;">
  <defs>
    <clipPath id="77dd804e94">
      <path d="M 156 151 L 203 151 L 203 206 L 156 206 Z M 156 151 "/>
    </clipPath>
    <clipPath id="e1076a56b4">
      <path d="M 117.105469 201.226562 L 178.09375 140.238281 L 214.15625 176.300781 L 153.167969 237.289062 Z M 117.105469 201.226562 "/>
    </clipPath>
    <clipPath id="e7a0e93158">
      <path d="M 177.828125 140.503906 L 116.839844 201.492188 L 152.902344 237.554688 L 213.890625 176.566406 Z M 177.828125 140.503906 "/>
    </clipPath>
    <clipPath id="a7bd7f2422">
      <path d="M 142 195 L 182 195 L 182 234 L 142 234 Z M 142 195 "/>
    </clipPath>
    <clipPath id="93b2dfd650">
      <path d="M 117.105469 201.226562 L 178.09375 140.238281 L 214.15625 176.300781 L 153.167969 237.289062 Z M 117.105469 201.226562 "/>
    </clipPath>
    <clipPath id="8e581c263d">
      <path d="M 177.828125 140.503906 L 116.839844 201.492188 L 152.902344 237.554688 L 213.890625 176.566406 Z M 177.828125 140.503906 "/>
    </clipPath>
    <clipPath id="3171dc2d0e">
      <path d="M 149 230 L 156 230 L 156 237 L 149 237 Z M 149 230 "/>
    </clipPath>
    <clipPath id="604a6f1950">
      <path d="M 117.105469 201.226562 L 178.09375 140.238281 L 214.15625 176.300781 L 153.167969 237.289062 Z M 117.105469 201.226562 "/>
    </clipPath>
    <clipPath id="c3603f6f99">
      <path d="M 177.828125 140.503906 L 116.839844 201.492188 L 152.902344 237.554688 L 213.890625 176.566406 Z M 177.828125 140.503906 "/>
    </clipPath>
    <clipPath id="92917950b6">
      <path d="M 165 199 L 172 199 L 172 206 L 165 206 Z M 165 199 "/>
    </clipPath>
    <clipPath id="dc0544804e">
      <path d="M 117.105469 201.226562 L 178.09375 140.238281 L 214.15625 176.300781 L 153.167969 237.289062 Z M 117.105469 201.226562 "/>
    </clipPath>
    <clipPath id="94ea786f60">
      <path d="M 177.828125 140.503906 L 116.839844 201.492188 L 152.902344 237.554688 L 213.890625 176.566406 Z M 177.828125 140.503906 "/>
    </clipPath>
    <clipPath id="cd80c755a7">
      <path d="M 161 204 L 167 204 L 167 211 L 161 211 Z M 161 204 "/>
    </clipPath>
    <clipPath id="02ac7a71aa">
      <path d="M 117.105469 201.226562 L 178.09375 140.238281 L 214.15625 176.300781 L 153.167969 237.289062 Z M 117.105469 201.226562 "/>
    </clipPath>
    <clipPath id="68fe1fc0f8">
      <path d="M 177.828125 140.503906 L 116.839844 201.492188 L 152.902344 237.554688 L 213.890625 176.566406 Z M 177.828125 140.503906 "/>
    </clipPath>
    <clipPath id="feb0d07940">
      <path d="M 156 209 L 163 209 L 163 215 L 156 215 Z M 156 209 "/>
    </clipPath>
    <clipPath id="60b7edf5a2">
      <path d="M 117.105469 201.226562 L 178.09375 140.238281 L 214.15625 176.300781 L 153.167969 237.289062 Z M 117.105469 201.226562 "/>
    </clipPath>
    <clipPath id="5a9b1af5e5">
      <path d="M 177.828125 140.503906 L 116.839844 201.492188 L 152.902344 237.554688 L 213.890625 176.566406 Z M 177.828125 140.503906 "/>
    </clipPath>
    <clipPath id="be59861611">
      <path d="M 151 213 L 158 213 L 158 220 L 151 220 Z M 151 213 "/>
    </clipPath>
    <clipPath id="e46d57d574">
      <path d="M 117.105469 201.226562 L 178.09375 140.238281 L 214.15625 176.300781 L 153.167969 237.289062 Z M 117.105469 201.226562 "/>
    </clipPath>
    <clipPath id="419466d133">
      <path d="M 177.828125 140.503906 L 116.839844 201.492188 L 152.902344 237.554688 L 213.890625 176.566406 Z M 177.828125 140.503906 "/>
    </clipPath>
    <clipPath id="f93cae379b">
      <path d="M 146 218 L 153 218 L 153 225 L 146 225 Z M 146 218 "/>
    </clipPath>
    <clipPath id="55cbe7404d">
      <path d="M 117.105469 201.226562 L 178.09375 140.238281 L 214.15625 176.300781 L 153.167969 237.289062 Z M 117.105469 201.226562 "/>
    </clipPath>
    <clipPath id="bc9045dd9f">
      <path d="M 177.828125 140.503906 L 116.839844 201.492188 L 152.902344 237.554688 L 213.890625 176.566406 Z M 177.828125 140.503906 "/>
    </clipPath>
    <clipPath id="be6eba6257">
      <path d="M 165 159 L 194 159 L 194 189 L 165 189 Z M 165 159 "/>
    </clipPath>
    <clipPath id="e2ecc1f08c">
      <path d="M 117.105469 201.226562 L 178.09375 140.238281 L 214.15625 176.300781 L 153.167969 237.289062 Z M 117.105469 201.226562 "/>
    </clipPath>
    <clipPath id="8eda02b862">
      <path d="M 177.828125 140.503906 L 116.839844 201.492188 L 152.902344 237.554688 L 213.890625 176.566406 Z M 177.828125 140.503906 "/>
    </clipPath>
    <clipPath id="a40f058059">
      <path d="M 150 167 L 161 167 L 161 181 L 150 181 Z M 150 167 "/>
    </clipPath>
    <clipPath id="677082c301">
      <path d="M 117.105469 201.226562 L 178.09375 140.238281 L 214.15625 176.300781 L 153.167969 237.289062 Z M 117.105469 201.226562 "/>
    </clipPath>
    <clipPath id="e97b4af70f">
      <path d="M 177.828125 140.503906 L 116.839844 201.492188 L 152.902344 237.554688 L 213.890625 176.566406 Z M 177.828125 140.503906 "/>
    </clipPath>
    <clipPath id="bb470ddc38">
      <path d="M 177 192 L 182 192 L 182 197 L 177 197 Z M 177 192 "/>
    </clipPath>
    <clipPath id="89286bf27b">
      <path d="M 117.105469 201.226562 L 178.09375 140.238281 L 214.15625 176.300781 L 153.167969 237.289062 Z M 117.105469 201.226562 "/>
    </clipPath>
    <clipPath id="7f13e208ee">
      <path d="M 177.828125 140.503906 L 116.839844 201.492188 L 152.902344 237.554688 L 213.890625 176.566406 Z M 177.828125 140.503906 "/>
    </clipPath>
  </defs>
  <g id="67a165648d">
    <rect x="0" width="375" y="0" height="374.999991" style="fill:none;fill-opacity:1;stroke:none;" fill="none"/>
    <rect x="0" width="375" y="0" height="374.999991" style="fill:none;fill-opacity:1;stroke:none;" fill="none"/>
    <g clip-rule="nonzero" clip-path="url(#77dd804e94)">
      <g clip-rule="nonzero" clip-path="url(#e1076a56b4)">
        <g clip-rule="nonzero" clip-path="url(#e7a0e93158)">
          <path style=" stroke:none;fill-rule:nonzero;fill:#333333;fill-opacity:1;" d="M 180.667969 205.003906 L 195.488281 190.179688 C 204.316406 181.355469 204.316406 166.992188 195.488281 158.167969 C 186.664062 149.339844 172.300781 149.339844 163.476562 158.167969 C 154.648438 166.992188 154.648438 181.355469 163.476562 190.179688 L 178.296875 205.003906 C 178.953125 205.65625 180.011719 205.65625 180.667969 205.003906 Z M 165.847656 160.539062 C 173.367188 153.019531 185.597656 153.019531 193.117188 160.539062 C 200.636719 168.054688 200.636719 180.289062 193.117188 187.808594 L 179.484375 201.445312 L 165.847656 187.808594 C 158.328125 180.289062 158.328125 168.054688 165.847656 160.539062 Z M 165.847656 160.539062 "/>
        </g>
      </g>
    </g>
    <g clip-rule="nonzero" clip-path="url(#a7bd7f2422)">
      <g clip-rule="nonzero" clip-path="url(#93b2dfd650)">
        <g clip-rule="nonzero" clip-path="url(#8e581c263d)">
          <path style=" stroke:none;fill-rule:nonzero;fill:#333333;fill-opacity:1;" d="M 152.210938 233.460938 L 180.667969 205.003906 C 181.324219 204.347656 181.324219 203.285156 180.667969 202.632812 L 173.554688 195.515625 C 172.898438 194.863281 171.835938 194.863281 171.183594 195.515625 L 142.722656 223.976562 C 142.070312 224.628906 142.070312 225.691406 142.722656 226.347656 L 149.839844 233.460938 C 150.492188 234.117188 151.554688 234.117188 152.210938 233.460938 Z M 177.109375 203.816406 L 151.023438 229.902344 L 146.28125 225.160156 L 172.367188 199.074219 Z M 177.109375 203.816406 "/>
        </g>
      </g>
    </g>
    <g clip-rule="nonzero" clip-path="url(#3171dc2d0e)">
      <g clip-rule="nonzero" clip-path="url(#604a6f1950)">
        <g clip-rule="nonzero" clip-path="url(#c3603f6f99)">
          <path style=" stroke:none;fill-rule:nonzero;fill:#333333;fill-opacity:1;" d="M 154.582031 235.832031 C 155.238281 235.175781 155.238281 234.117188 154.582031 233.460938 L 152.210938 231.089844 C 151.554688 230.433594 150.492188 230.433594 149.839844 231.089844 C 149.183594 231.742188 149.183594 232.804688 149.839844 233.460938 L 152.210938 235.832031 C 152.863281 236.488281 153.925781 236.488281 154.582031 235.832031 Z M 154.582031 235.832031 "/>
        </g>
      </g>
    </g>
    <g clip-rule="nonzero" clip-path="url(#92917950b6)">
      <g clip-rule="nonzero" clip-path="url(#dc0544804e)">
        <g clip-rule="nonzero" clip-path="url(#94ea786f60)">
          <path style=" stroke:none;fill-rule:nonzero;fill:#333333;fill-opacity:1;" d="M 171.183594 205.003906 C 171.835938 204.347656 171.835938 203.285156 171.183594 202.632812 L 168.8125 200.261719 C 168.15625 199.605469 167.09375 199.605469 166.4375 200.261719 C 165.785156 200.914062 165.785156 201.976562 166.4375 202.632812 L 168.8125 205.003906 C 169.464844 205.65625 170.527344 205.65625 171.183594 205.003906 Z M 171.183594 205.003906 "/>
        </g>
      </g>
    </g>
    <g clip-rule="nonzero" clip-path="url(#cd80c755a7)">
      <g clip-rule="nonzero" clip-path="url(#02ac7a71aa)">
        <g clip-rule="nonzero" clip-path="url(#68fe1fc0f8)">
          <path style=" stroke:none;fill-rule:nonzero;fill:#333333;fill-opacity:1;" d="M 166.4375 209.746094 C 167.09375 209.089844 167.09375 208.027344 166.4375 207.375 L 164.066406 205.003906 C 163.414062 204.347656 162.351562 204.347656 161.695312 205.003906 C 161.042969 205.65625 161.042969 206.71875 161.695312 207.375 L 164.066406 209.746094 C 164.722656 210.402344 165.785156 210.402344 166.4375 209.746094 Z M 166.4375 209.746094 "/>
        </g>
      </g>
    </g>
    <g clip-rule="nonzero" clip-path="url(#feb0d07940)">
      <g clip-rule="nonzero" clip-path="url(#60b7edf5a2)">
        <g clip-rule="nonzero" clip-path="url(#5a9b1af5e5)">
          <path style=" stroke:none;fill-rule:nonzero;fill:#333333;fill-opacity:1;" d="M 161.695312 214.488281 C 162.351562 213.832031 162.351562 212.773438 161.695312 212.117188 L 159.324219 209.746094 C 158.671875 209.089844 157.609375 209.089844 156.953125 209.746094 C 156.296875 210.402344 156.296875 211.460938 156.953125 212.117188 L 159.324219 214.488281 C 159.980469 215.144531 161.042969 215.144531 161.695312 214.488281 Z M 161.695312 214.488281 "/>
        </g>
      </g>
    </g>
    <g clip-rule="nonzero" clip-path="url(#be59861611)">
      <g clip-rule="nonzero" clip-path="url(#e46d57d574)">
        <g clip-rule="nonzero" clip-path="url(#419466d133)">
          <path style=" stroke:none;fill-rule:nonzero;fill:#333333;fill-opacity:1;" d="M 156.953125 219.230469 C 157.609375 218.578125 157.609375 217.515625 156.953125 216.859375 L 154.582031 214.488281 C 153.925781 213.832031 152.863281 213.832031 152.210938 214.488281 C 151.554688 215.144531 151.554688 216.207031 152.210938 216.859375 L 154.582031 219.230469 C 155.238281 219.886719 156.296875 219.886719 156.953125 219.230469 Z M 156.953125 219.230469 "/>
        </g>
      </g>
    </g>
    <g clip-rule="nonzero" clip-path="url(#f93cae379b)">
      <g clip-rule="nonzero" clip-path="url(#55cbe7404d)">
        <g clip-rule="nonzero" clip-path="url(#bc9045dd9f)">
          <path style=" stroke:none;fill-rule:nonzero;fill:#333333;fill-opacity:1;" d="M 152.210938 223.976562 C 152.863281 223.320312 152.867188 222.257812 152.210938 221.601562 L 149.839844 219.230469 C 149.183594 218.578125 148.121094 218.578125 147.46875 219.230469 C 146.8125 219.886719 146.8125 220.949219 147.46875 221.601562 L 149.839844 223.976562 C 150.492188 224.628906 151.554688 224.628906 152.210938 223.976562 Z M 152.210938 223.976562 "/>
        </g>
      </g>
    </g>
    <g clip-rule="nonzero" clip-path="url(#be6eba6257)">
      <g clip-rule="nonzero" clip-path="url(#e2ecc1f08c)">
        <g clip-rule="nonzero" clip-path="url(#8eda02b862)">
          <path style=" stroke:none;fill-rule:nonzero;fill:#333333;fill-opacity:1;" d="M 189.5625 184.253906 C 195.117188 178.695312 195.117188 169.652344 189.5625 164.09375 C 184.003906 158.539062 174.960938 158.539062 169.402344 164.09375 C 163.847656 169.652344 163.847656 178.695312 169.402344 184.253906 C 174.960938 189.808594 184.003906 189.808594 189.5625 184.253906 Z M 171.773438 166.464844 C 176.023438 162.214844 182.941406 162.214844 187.191406 166.464844 C 191.441406 170.714844 191.441406 177.632812 187.191406 181.882812 C 182.941406 186.128906 176.023438 186.128906 171.773438 181.882812 C 167.523438 177.632812 167.523438 170.714844 171.773438 166.464844 Z M 171.773438 166.464844 "/>
        </g>
      </g>
    </g>
    <g clip-rule="nonzero" clip-path="url(#a40f058059)">
      <g clip-rule="nonzero" clip-path="url(#677082c301)">
        <g clip-rule="nonzero" clip-path="url(#e97b4af70f)">
          <path style=" stroke:none;fill-rule:nonzero;fill:#333333;fill-opacity:1;" d="M 160.757812 178.804688 C 160.011719 175.773438 160.011719 172.574219 160.757812 169.542969 C 161.019531 168.484375 160.21875 167.464844 159.132812 167.464844 L 151.8125 167.464844 C 150.886719 167.464844 150.136719 168.214844 150.136719 169.140625 L 150.136719 179.203125 C 150.136719 180.128906 150.886719 180.882812 151.8125 180.882812 L 159.132812 180.882812 C 160.21875 180.882812 161.019531 179.859375 160.757812 178.804688 Z M 157.09375 170.820312 C 156.765625 173.039062 156.765625 175.308594 157.09375 177.527344 L 153.488281 177.527344 L 153.488281 170.820312 Z M 157.09375 170.820312 "/>
        </g>
      </g>
    </g>
    <g clip-rule="nonzero" clip-path="url(#bb470ddc38)">
      <g clip-rule="nonzero" clip-path="url(#89286bf27b)">
        <g clip-rule="nonzero" clip-path="url(#7f13e208ee)">
          <path style=" stroke:none;fill-rule:nonzero;fill:#333333;fill-opacity:1;" d="M 180.667969 195.515625 C 181.320312 194.863281 181.324219 193.800781 180.667969 193.144531 C 180.003906 192.484375 178.9375 192.503906 178.296875 193.144531 C 177.628906 193.816406 177.660156 194.882812 178.296875 195.515625 C 178.949219 196.167969 180.011719 196.171875 180.667969 195.515625 Z M 180.667969 195.515625 "/>
        </g>
      </g>
    </g>
    <g style="fill:#333333;fill-opacity:1;">
      <g transform="translate(6.495819, 198.633783)">
        <path style="stroke:none" d="M 35.6875 -12.0625 L 10.515625 -12.0625 L 5.09375 0 L 0.125 0 L 20.78125 -45.1875 L 25.5 -45.1875 L 46.15625 0 L 41.109375 0 Z M 33.953125 -15.9375 L 23.109375 -40.21875 L 12.265625 -15.9375 Z M 33.953125 -15.9375 "/>
      </g>
    </g>
    <g style="fill:#333333;fill-opacity:1;">
      <g transform="translate(52.777813, 198.633783)">
        <path style="stroke:none" d="M 7.359375 -45.1875 L 12.140625 -45.1875 L 12.140625 0 L 7.359375 0 Z M 7.359375 -45.1875 "/>
      </g>
    </g>
    <g style="fill:#333333;fill-opacity:1;">
      <g transform="translate(72.271752, 198.633783)">
        <path style="stroke:none" d=""/>
      </g>
    </g>
    <g style="fill:#333333;fill-opacity:1;">
      <g transform="translate(89.183721, 198.633783)">
        <path style="stroke:none" d="M 54.28125 -45.1875 L 54.28125 0 L 49.703125 0 L 49.703125 -36.140625 L 31.953125 -5.75 L 29.6875 -5.75 L 11.9375 -35.953125 L 11.9375 0 L 7.359375 0 L 7.359375 -45.1875 L 11.296875 -45.1875 L 30.921875 -11.6875 L 50.34375 -45.1875 Z M 54.28125 -45.1875 "/>
      </g>
    </g>
    <g style="fill:#333333;fill-opacity:1;">
      <g transform="translate(150.845967, 198.633783)">
        <path style="stroke:none" d=""/>
      </g>
    </g>
    <g style="fill:#333333;fill-opacity:1;">
      <g transform="translate(167.757936, 198.633783)">
        <path style="stroke:none" d=""/>
      </g>
    </g>
    <g style="fill:#333333;fill-opacity:1;">
      <g transform="translate(184.669906, 198.633783)">
        <path style="stroke:none" d=""/>
      </g>
    </g>
    <g style="fill:#333333;fill-opacity:1;">
      <g transform="translate(201.597488, 198.633783)">
        <path style="stroke:none" d="M 45.125 -45.1875 L 45.125 0 L 41.1875 0 L 12.140625 -36.65625 L 12.140625 0 L 7.359375 0 L 7.359375 -45.1875 L 11.296875 -45.1875 L 40.40625 -8.515625 L 40.40625 -45.1875 Z M 45.125 -45.1875 "/>
      </g>
    </g>
    <g style="fill:#333333;fill-opacity:1;">
      <g transform="translate(254.076234, 198.633783)">
        <path style="stroke:none" d="M 16.140625 -41.046875 L 0.265625 -41.046875 L 0.265625 -45.1875 L 36.796875 -45.1875 L 36.796875 -41.046875 L 20.90625 -41.046875 L 20.90625 0 L 16.140625 0 Z M 16.140625 -41.046875 "/>
      </g>
    </g>
    <g style="fill:#333333;fill-opacity:1;">
      <g transform="translate(288.868236, 198.633783)">
        <path style="stroke:none" d="M 35.6875 -12.0625 L 10.515625 -12.0625 L 5.09375 0 L 0.125 0 L 20.78125 -45.1875 L 25.5 -45.1875 L 46.15625 0 L 41.109375 0 Z M 33.953125 -15.9375 L 23.109375 -40.21875 L 12.265625 -15.9375 Z M 33.953125 -15.9375 "/>
      </g>
    </g>
    <g style="fill:#333333;fill-opacity:1;">
      <g transform="translate(336.118546, 198.633783)">
        <path style="stroke:none" d="M 12.203125 0.390625 C 9.617188 0.390625 7.226562 -0.164062 5.03125 -1.28125 C 2.84375 -2.40625 1.054688 -4 -0.328125 -6.0625 L 2.515625 -9.296875 C 5.015625 -5.597656 8.265625 -3.75 12.265625 -3.75 C 17.859375 -3.75 20.65625 -7.0625 20.65625 -13.6875 L 20.65625 -41.046875 L 4.125 -41.046875 L 4.125 -45.1875 L 25.359375 -45.1875 L 25.359375 -13.875 C 25.359375 -9.144531 24.25 -5.582031 22.03125 -3.1875 C 19.820312 -0.800781 16.546875 0.390625 12.203125 0.390625 Z M 12.203125 0.390625 "/>
      </g>
    </g>
  </g>
</svg>
