<?xml version="1.0"?>
<svg xmlns="http://www.w3.org/2000/svg" xmlns:xlink="http://www.w3.org/1999/xlink" width="500" zoomAndPan="magnify" viewBox="0 0 375 374.999991" height="500" preserveAspectRatio="xMidYMid meet" version="1.2" style="background-color:transparent;">
  <defs>
    <clipPath id="8c9136bfc0">
      <path d="M 99.777344 5.015625 L 257.277344 5.015625 L 257.277344 260 L 99.777344 260 Z M 99.777344 5.015625 "/>
    </clipPath>
    <clipPath id="67a8066787">
      <path d="M 129.699219 54 L 187.449219 54 L 187.449219 83.480469 L 129.699219 83.480469 Z M 129.699219 54 "/>
    </clipPath>
    <clipPath id="ae934174cd">
      <path d="M 156 289 L 203 289 L 203 344 L 156 344 Z M 156 289 "/>
    </clipPath>
    <clipPath id="9d785dffc1">
      <path d="M 117.105469 338.78125 L 178.09375 277.792969 L 214.15625 313.855469 L 153.167969 374.84375 Z M 117.105469 338.78125 "/>
    </clipPath>
    <clipPath id="00eddc36f2">
      <path d="M 177.828125 278.058594 L 116.839844 339.046875 L 152.902344 375.109375 L 213.890625 314.121094 Z M 177.828125 278.058594 "/>
    </clipPath>
    <clipPath id="1181f8f190">
      <path d="M 142 332 L 182 332 L 182 372 L 142 372 Z M 142 332 "/>
    </clipPath>
    <clipPath id="fd0e15417c">
      <path d="M 117.105469 338.78125 L 178.09375 277.792969 L 214.15625 313.855469 L 153.167969 374.84375 Z M 117.105469 338.78125 "/>
    </clipPath>
    <clipPath id="91b87660b4">
      <path d="M 177.828125 278.058594 L 116.839844 339.046875 L 152.902344 375.109375 L 213.890625 314.121094 Z M 177.828125 278.058594 "/>
    </clipPath>
    <clipPath id="2e8f5434dc">
      <path d="M 149 368 L 156 368 L 156 374 L 149 374 Z M 149 368 "/>
    </clipPath>
    <clipPath id="0031ea1d1a">
      <path d="M 117.105469 338.78125 L 178.09375 277.792969 L 214.15625 313.855469 L 153.167969 374.84375 Z M 117.105469 338.78125 "/>
    </clipPath>
    <clipPath id="70488f8425">
      <path d="M 177.828125 278.058594 L 116.839844 339.046875 L 152.902344 375.109375 L 213.890625 314.121094 Z M 177.828125 278.058594 "/>
    </clipPath>
    <clipPath id="b24522c18a">
      <path d="M 165 337 L 172 337 L 172 344 L 165 344 Z M 165 337 "/>
    </clipPath>
    <clipPath id="61fcb6a215">
      <path d="M 117.105469 338.78125 L 178.09375 277.792969 L 214.15625 313.855469 L 153.167969 374.84375 Z M 117.105469 338.78125 "/>
    </clipPath>
    <clipPath id="ca13a42208">
      <path d="M 177.828125 278.058594 L 116.839844 339.046875 L 152.902344 375.109375 L 213.890625 314.121094 Z M 177.828125 278.058594 "/>
    </clipPath>
    <clipPath id="8f07e3a0ab">
      <path d="M 161 342 L 167 342 L 167 348 L 161 348 Z M 161 342 "/>
    </clipPath>
    <clipPath id="ab93bd393b">
      <path d="M 117.105469 338.78125 L 178.09375 277.792969 L 214.15625 313.855469 L 153.167969 374.84375 Z M 117.105469 338.78125 "/>
    </clipPath>
    <clipPath id="2655fa93b7">
      <path d="M 177.828125 278.058594 L 116.839844 339.046875 L 152.902344 375.109375 L 213.890625 314.121094 Z M 177.828125 278.058594 "/>
    </clipPath>
    <clipPath id="5804808e8e">
      <path d="M 156 346 L 163 346 L 163 353 L 156 353 Z M 156 346 "/>
    </clipPath>
    <clipPath id="20439f205c">
      <path d="M 117.105469 338.78125 L 178.09375 277.792969 L 214.15625 313.855469 L 153.167969 374.84375 Z M 117.105469 338.78125 "/>
    </clipPath>
    <clipPath id="b7af646f28">
      <path d="M 177.828125 278.058594 L 116.839844 339.046875 L 152.902344 375.109375 L 213.890625 314.121094 Z M 177.828125 278.058594 "/>
    </clipPath>
    <clipPath id="57520fc4e1">
      <path d="M 151 351 L 158 351 L 158 358 L 151 358 Z M 151 351 "/>
    </clipPath>
    <clipPath id="cd6f71784a">
      <path d="M 117.105469 338.78125 L 178.09375 277.792969 L 214.15625 313.855469 L 153.167969 374.84375 Z M 117.105469 338.78125 "/>
    </clipPath>
    <clipPath id="21e5837567">
      <path d="M 177.828125 278.058594 L 116.839844 339.046875 L 152.902344 375.109375 L 213.890625 314.121094 Z M 177.828125 278.058594 "/>
    </clipPath>
    <clipPath id="ffe8122d4a">
      <path d="M 146 356 L 153 356 L 153 363 L 146 363 Z M 146 356 "/>
    </clipPath>
    <clipPath id="3ef8312ed2">
      <path d="M 117.105469 338.78125 L 178.09375 277.792969 L 214.15625 313.855469 L 153.167969 374.84375 Z M 117.105469 338.78125 "/>
    </clipPath>
    <clipPath id="924120a4cb">
      <path d="M 177.828125 278.058594 L 116.839844 339.046875 L 152.902344 375.109375 L 213.890625 314.121094 Z M 177.828125 278.058594 "/>
    </clipPath>
    <clipPath id="2715de3ee2">
      <path d="M 165 297 L 194 297 L 194 326 L 165 326 Z M 165 297 "/>
    </clipPath>
    <clipPath id="faa5917338">
      <path d="M 117.105469 338.78125 L 178.09375 277.792969 L 214.15625 313.855469 L 153.167969 374.84375 Z M 117.105469 338.78125 "/>
    </clipPath>
    <clipPath id="a5faa97f6e">
      <path d="M 177.828125 278.058594 L 116.839844 339.046875 L 152.902344 375.109375 L 213.890625 314.121094 Z M 177.828125 278.058594 "/>
    </clipPath>
    <clipPath id="bc5fd34514">
      <path d="M 150 305 L 161 305 L 161 319 L 150 319 Z M 150 305 "/>
    </clipPath>
    <clipPath id="2d2a041609">
      <path d="M 117.105469 338.78125 L 178.09375 277.792969 L 214.15625 313.855469 L 153.167969 374.84375 Z M 117.105469 338.78125 "/>
    </clipPath>
    <clipPath id="97dc2e58ca">
      <path d="M 177.828125 278.058594 L 116.839844 339.046875 L 152.902344 375.109375 L 213.890625 314.121094 Z M 177.828125 278.058594 "/>
    </clipPath>
    <clipPath id="7da4ceb4a2">
      <path d="M 177 330 L 182 330 L 182 334 L 177 334 Z M 177 330 "/>
    </clipPath>
    <clipPath id="b0081ed81d">
      <path d="M 117.105469 338.78125 L 178.09375 277.792969 L 214.15625 313.855469 L 153.167969 374.84375 Z M 117.105469 338.78125 "/>
    </clipPath>
    <clipPath id="48104a64b1">
      <path d="M 177.828125 278.058594 L 116.839844 339.046875 L 152.902344 375.109375 L 213.890625 314.121094 Z M 177.828125 278.058594 "/>
    </clipPath>
  </defs>
  <g id="2bd318ad5f">
    <rect x="0" width="375" y="0" height="374.999991" style="fill:none;fill-opacity:1;stroke:none;" fill="none"/>
    <rect x="0" width="375" y="0" height="374.999991" style="fill:none;fill-opacity:1;stroke:none;" fill="none"/>
    <g clip-rule="nonzero" clip-path="url(#8c9136bfc0)">
      <path style=" stroke:none;fill-rule:nonzero;fill:#333333;fill-opacity:1;" d="M 256.832031 9.449219 C 256.828125 9.316406 256.832031 9.179688 256.832031 9.042969 C 256.832031 6.953125 255.0625 5.179688 252.96875 5.179688 L 104.019531 5.179688 C 101.933594 5.179688 100.15625 6.949219 100.15625 9.042969 L 100.15625 225.429688 C 100.15625 235.371094 99.757812 245.410156 100.15625 255.351562 C 100.160156 255.484375 100.15625 255.621094 100.15625 255.757812 C 100.15625 257.847656 101.925781 259.621094 104.019531 259.621094 L 252.96875 259.621094 C 254.152344 259.621094 255.050781 259.179688 255.671875 258.511719 C 256.371094 257.890625 256.832031 256.972656 256.832031 255.757812 L 256.832031 39.371094 C 256.832031 29.425781 257.230469 19.390625 256.832031 9.449219 Z M 202.558594 251.894531 L 107.882812 251.894531 L 107.882812 19.117188 C 107.882812 17.101562 108.03125 14.988281 108.042969 12.90625 L 249.105469 12.90625 L 249.105469 225.429688 C 249.105469 234.222656 248.796875 243.085938 249 251.894531 Z M 202.558594 251.894531 "/>
    </g>
    <path style=" stroke:none;fill-rule:nonzero;fill:#333333;fill-opacity:1;" d="M 223.4375 119.621094 C 216.6875 119.597656 211.003906 125.386719 211.03125 132.113281 C 211.054688 138.863281 216.644531 144.601562 223.4375 144.601562 C 230.074219 144.601562 235.058594 139.417969 235.769531 133.113281 C 235.832031 132.804688 235.863281 132.472656 235.847656 132.113281 C 235.863281 131.753906 235.832031 131.421875 235.769531 131.117188 C 235.058594 124.800781 230.070312 119.648438 223.4375 119.621094 Z M 218.757812 132.113281 C 218.757812 125.964844 227.875 125.992188 228.121094 132.113281 C 227.875 138.226562 218.757812 138.261719 218.757812 132.113281 Z M 218.757812 132.113281 "/>
    <path style="fill:none;stroke-width:10;stroke-linecap:butt;stroke-linejoin:miter;stroke:#333333;stroke-opacity:1;stroke-miterlimit:4;" d="M 0.00247139 5.00237 L 100.445215 5.002369 " transform="matrix(0.00000000130329,-0.746733,0.746733,0.00000000130329,219.905191,239.720595)"/>
    <path style="fill:none;stroke-width:10;stroke-linecap:butt;stroke-linejoin:miter;stroke:#333333;stroke-opacity:1;stroke-miterlimit:4;" d="M -0.00000425523 5.000659 L 62.416736 5.000659 " transform="matrix(0,-0.745118,0.745118,0,154.844234,55.136716)"/>
    <path style="fill:none;stroke-width:10;stroke-linecap:butt;stroke-linejoin:miter;stroke:#333333;stroke-opacity:1;stroke-miterlimit:4;" d="M -0.000823465 5.001495 L 98.150237 5.001495 " transform="matrix(0,-0.748925,0.748925,0,129.773785,155.538446)"/>
    <path style="fill:none;stroke-width:10;stroke-linecap:butt;stroke-linejoin:miter;stroke:#333333;stroke-opacity:1;stroke-miterlimit:4;" d="M -0.00150246 4.999702 L 71.154782 4.999702 " transform="matrix(-0.748517,0,0,-0.748517,183.053563,115.605645)"/>
    <g clip-rule="nonzero" clip-path="url(#67a8066787)">
      <path style=" stroke:none;fill-rule:nonzero;fill:#333333;fill-opacity:1;" d="M 187.433594 83.148438 L 179.773438 83.148438 C 179.773438 71.457031 170.261719 61.945312 158.574219 61.945312 C 146.882812 61.945312 137.371094 71.457031 137.371094 83.148438 L 129.710938 83.148438 C 129.710938 74.34375 133.625 66.144531 140.632812 60.53125 C 144.832031 57.167969 149.910156 55.0625 155.257812 54.46875 C 164.183594 53.480469 172.753906 56.511719 178.980469 62.742188 C 184.433594 68.191406 187.433594 75.441406 187.433594 83.148438 Z M 187.433594 83.148438 "/>
    </g>
    <path style="fill:none;stroke-width:10;stroke-linecap:butt;stroke-linejoin:miter;stroke:#333333;stroke-opacity:1;stroke-miterlimit:4;" d="M 0.00183129 4.998742 L 98.12164 4.998742 " transform="matrix(0,-0.749164,0.749164,0,179.844967,155.536528)"/>
    <path style="fill:none;stroke-width:10;stroke-linecap:butt;stroke-linejoin:miter;stroke:#333333;stroke-opacity:1;stroke-miterlimit:4;" d="M 0.0021582 5.001689 L 44.392787 5.001689 " transform="matrix(0.7434,-0.00000000000000378,0.00000000000000378,0.7434,102.170271,131.371587)"/>
    <path style="fill:none;stroke-width:10;stroke-linecap:butt;stroke-linejoin:miter;stroke:#333333;stroke-opacity:1;stroke-miterlimit:4;" d="M -0.00184828 5.000886 L 36.701279 5.000886 " transform="matrix(0.75,-0.00000000000000465,0.00000000000000465,0.75,223.657636,208.014961)"/>
    <g clip-rule="nonzero" clip-path="url(#ae934174cd)">
      <g clip-rule="nonzero" clip-path="url(#9d785dffc1)">
        <g clip-rule="nonzero" clip-path="url(#00eddc36f2)">
          <path style=" stroke:none;fill-rule:nonzero;fill:#333333;fill-opacity:1;" d="M 180.667969 342.558594 L 195.488281 327.734375 C 204.316406 318.910156 204.316406 304.546875 195.488281 295.71875 C 186.664062 286.894531 172.300781 286.894531 163.476562 295.71875 C 154.648438 304.546875 154.648438 318.910156 163.476562 327.734375 L 178.296875 342.558594 C 178.953125 343.210938 180.011719 343.210938 180.667969 342.558594 Z M 165.847656 298.089844 C 173.367188 290.574219 185.597656 290.574219 193.117188 298.089844 C 200.636719 305.609375 200.636719 317.84375 193.117188 325.363281 L 179.484375 339 L 165.847656 325.363281 C 158.328125 317.84375 158.328125 305.609375 165.847656 298.089844 Z M 165.847656 298.089844 "/>
        </g>
      </g>
    </g>
    <g clip-rule="nonzero" clip-path="url(#1181f8f190)">
      <g clip-rule="nonzero" clip-path="url(#fd0e15417c)">
        <g clip-rule="nonzero" clip-path="url(#91b87660b4)">
          <path style=" stroke:none;fill-rule:nonzero;fill:#333333;fill-opacity:1;" d="M 152.210938 371.015625 L 180.667969 342.558594 C 181.324219 341.902344 181.324219 340.839844 180.667969 340.183594 L 173.554688 333.070312 C 172.898438 332.417969 171.835938 332.417969 171.183594 333.070312 L 142.722656 361.527344 C 142.070312 362.183594 142.070312 363.246094 142.722656 363.898438 L 149.839844 371.015625 C 150.492188 371.667969 151.554688 371.667969 152.210938 371.015625 Z M 177.109375 341.371094 L 151.023438 367.457031 L 146.28125 362.714844 L 172.367188 336.628906 Z M 177.109375 341.371094 "/>
        </g>
      </g>
    </g>
    <g clip-rule="nonzero" clip-path="url(#2e8f5434dc)">
      <g clip-rule="nonzero" clip-path="url(#0031ea1d1a)">
        <g clip-rule="nonzero" clip-path="url(#70488f8425)">
          <path style=" stroke:none;fill-rule:nonzero;fill:#333333;fill-opacity:1;" d="M 154.582031 373.386719 C 155.238281 372.730469 155.238281 371.667969 154.582031 371.015625 L 152.210938 368.644531 C 151.554688 367.988281 150.492188 367.988281 149.839844 368.644531 C 149.183594 369.296875 149.183594 370.359375 149.839844 371.015625 L 152.210938 373.386719 C 152.863281 374.039062 153.925781 374.039062 154.582031 373.386719 Z M 154.582031 373.386719 "/>
        </g>
      </g>
    </g>
    <g clip-rule="nonzero" clip-path="url(#b24522c18a)">
      <g clip-rule="nonzero" clip-path="url(#61fcb6a215)">
        <g clip-rule="nonzero" clip-path="url(#ca13a42208)">
          <path style=" stroke:none;fill-rule:nonzero;fill:#333333;fill-opacity:1;" d="M 171.183594 342.558594 C 171.835938 341.902344 171.835938 340.839844 171.183594 340.183594 L 168.8125 337.8125 C 168.15625 337.160156 167.09375 337.160156 166.4375 337.8125 C 165.785156 338.46875 165.785156 339.53125 166.4375 340.183594 L 168.8125 342.558594 C 169.464844 343.210938 170.527344 343.210938 171.183594 342.558594 Z M 171.183594 342.558594 "/>
        </g>
      </g>
    </g>
    <g clip-rule="nonzero" clip-path="url(#8f07e3a0ab)">
      <g clip-rule="nonzero" clip-path="url(#ab93bd393b)">
        <g clip-rule="nonzero" clip-path="url(#2655fa93b7)">
          <path style=" stroke:none;fill-rule:nonzero;fill:#333333;fill-opacity:1;" d="M 166.4375 347.300781 C 167.09375 346.644531 167.09375 345.582031 166.4375 344.929688 L 164.066406 342.558594 C 163.414062 341.902344 162.351562 341.902344 161.695312 342.558594 C 161.042969 343.210938 161.042969 344.273438 161.695312 344.929688 L 164.066406 347.300781 C 164.722656 347.953125 165.785156 347.953125 166.4375 347.300781 Z M 166.4375 347.300781 "/>
        </g>
      </g>
    </g>
    <g clip-rule="nonzero" clip-path="url(#5804808e8e)">
      <g clip-rule="nonzero" clip-path="url(#20439f205c)">
        <g clip-rule="nonzero" clip-path="url(#b7af646f28)">
          <path style=" stroke:none;fill-rule:nonzero;fill:#333333;fill-opacity:1;" d="M 161.695312 352.042969 C 162.351562 351.386719 162.351562 350.328125 161.695312 349.671875 L 159.324219 347.300781 C 158.671875 346.644531 157.609375 346.644531 156.953125 347.300781 C 156.296875 347.953125 156.296875 349.015625 156.953125 349.671875 L 159.324219 352.042969 C 159.980469 352.699219 161.042969 352.699219 161.695312 352.042969 Z M 161.695312 352.042969 "/>
        </g>
      </g>
    </g>
    <g clip-rule="nonzero" clip-path="url(#57520fc4e1)">
      <g clip-rule="nonzero" clip-path="url(#cd6f71784a)">
        <g clip-rule="nonzero" clip-path="url(#21e5837567)">
          <path style=" stroke:none;fill-rule:nonzero;fill:#333333;fill-opacity:1;" d="M 156.953125 356.785156 C 157.609375 356.132812 157.609375 355.070312 156.953125 354.414062 L 154.582031 352.042969 C 153.925781 351.386719 152.863281 351.386719 152.210938 352.042969 C 151.554688 352.699219 151.554688 353.757812 152.210938 354.414062 L 154.582031 356.785156 C 155.238281 357.441406 156.296875 357.441406 156.953125 356.785156 Z M 156.953125 356.785156 "/>
        </g>
      </g>
    </g>
    <g clip-rule="nonzero" clip-path="url(#ffe8122d4a)">
      <g clip-rule="nonzero" clip-path="url(#3ef8312ed2)">
        <g clip-rule="nonzero" clip-path="url(#924120a4cb)">
          <path style=" stroke:none;fill-rule:nonzero;fill:#333333;fill-opacity:1;" d="M 152.210938 361.527344 C 152.863281 360.875 152.867188 359.8125 152.210938 359.15625 L 149.839844 356.785156 C 149.183594 356.132812 148.121094 356.132812 147.46875 356.785156 C 146.8125 357.441406 146.8125 358.503906 147.46875 359.15625 L 149.839844 361.527344 C 150.492188 362.183594 151.554688 362.183594 152.210938 361.527344 Z M 152.210938 361.527344 "/>
        </g>
      </g>
    </g>
    <g clip-rule="nonzero" clip-path="url(#2715de3ee2)">
      <g clip-rule="nonzero" clip-path="url(#faa5917338)">
        <g clip-rule="nonzero" clip-path="url(#a5faa97f6e)">
          <path style=" stroke:none;fill-rule:nonzero;fill:#333333;fill-opacity:1;" d="M 189.5625 321.804688 C 195.117188 316.25 195.117188 307.207031 189.5625 301.648438 C 184.003906 296.089844 174.960938 296.089844 169.402344 301.648438 C 163.847656 307.207031 163.847656 316.25 169.402344 321.804688 C 174.960938 327.363281 184.003906 327.363281 189.5625 321.804688 Z M 171.773438 304.019531 C 176.023438 299.769531 182.941406 299.769531 187.191406 304.019531 C 191.441406 308.269531 191.441406 315.183594 187.191406 319.433594 C 182.941406 323.683594 176.023438 323.683594 171.773438 319.433594 C 167.523438 315.183594 167.523438 308.269531 171.773438 304.019531 Z M 171.773438 304.019531 "/>
        </g>
      </g>
    </g>
    <g clip-rule="nonzero" clip-path="url(#bc5fd34514)">
      <g clip-rule="nonzero" clip-path="url(#2d2a041609)">
        <g clip-rule="nonzero" clip-path="url(#97dc2e58ca)">
          <path style=" stroke:none;fill-rule:nonzero;fill:#333333;fill-opacity:1;" d="M 160.757812 316.359375 C 160.011719 313.328125 160.011719 310.125 160.757812 307.097656 C 161.019531 306.039062 160.21875 305.019531 159.132812 305.019531 L 151.8125 305.019531 C 150.886719 305.019531 150.136719 305.769531 150.136719 306.695312 L 150.136719 316.757812 C 150.136719 317.683594 150.886719 318.4375 151.8125 318.4375 L 159.132812 318.4375 C 160.21875 318.433594 161.019531 317.414062 160.757812 316.359375 Z M 157.09375 308.375 C 156.765625 310.59375 156.765625 312.859375 157.09375 315.082031 L 153.488281 315.082031 L 153.488281 308.375 Z M 157.09375 308.375 "/>
        </g>
      </g>
    </g>
    <g clip-rule="nonzero" clip-path="url(#7da4ceb4a2)">
      <g clip-rule="nonzero" clip-path="url(#b0081ed81d)">
        <g clip-rule="nonzero" clip-path="url(#48104a64b1)">
          <path style=" stroke:none;fill-rule:nonzero;fill:#333333;fill-opacity:1;" d="M 180.667969 333.070312 C 181.320312 332.414062 181.324219 331.355469 180.667969 330.699219 C 180.003906 330.035156 178.9375 330.058594 178.296875 330.699219 C 177.628906 331.367188 177.660156 332.433594 178.296875 333.070312 C 178.949219 333.722656 180.011719 333.726562 180.667969 333.070312 Z M 180.667969 333.070312 "/>
        </g>
      </g>
    </g>
    <g style="fill:#333333;fill-opacity:1;">
      <g transform="translate(6.495819, 336.187845)">
        <path style="stroke:none" d="M 35.6875 -12.0625 L 10.515625 -12.0625 L 5.09375 0 L 0.125 0 L 20.78125 -45.1875 L 25.5 -45.1875 L 46.15625 0 L 41.109375 0 Z M 33.953125 -15.9375 L 23.109375 -40.21875 L 12.265625 -15.9375 Z M 33.953125 -15.9375 "/>
      </g>
    </g>
    <g style="fill:#333333;fill-opacity:1;">
      <g transform="translate(52.777813, 336.187845)">
        <path style="stroke:none" d="M 7.359375 -45.1875 L 12.140625 -45.1875 L 12.140625 0 L 7.359375 0 Z M 7.359375 -45.1875 "/>
      </g>
    </g>
    <g style="fill:#333333;fill-opacity:1;">
      <g transform="translate(72.271752, 336.187845)">
        <path style="stroke:none" d=""/>
      </g>
    </g>
    <g style="fill:#333333;fill-opacity:1;">
      <g transform="translate(89.183721, 336.187845)">
        <path style="stroke:none" d="M 54.28125 -45.1875 L 54.28125 0 L 49.703125 0 L 49.703125 -36.140625 L 31.953125 -5.75 L 29.6875 -5.75 L 11.9375 -35.953125 L 11.9375 0 L 7.359375 0 L 7.359375 -45.1875 L 11.296875 -45.1875 L 30.921875 -11.6875 L 50.34375 -45.1875 Z M 54.28125 -45.1875 "/>
      </g>
    </g>
    <g style="fill:#333333;fill-opacity:1;">
      <g transform="translate(150.845967, 336.187845)">
        <path style="stroke:none" d=""/>
      </g>
    </g>
    <g style="fill:#333333;fill-opacity:1;">
      <g transform="translate(167.757936, 336.187845)">
        <path style="stroke:none" d=""/>
      </g>
    </g>
    <g style="fill:#333333;fill-opacity:1;">
      <g transform="translate(184.669906, 336.187845)">
        <path style="stroke:none" d=""/>
      </g>
    </g>
    <g style="fill:#333333;fill-opacity:1;">
      <g transform="translate(201.597488, 336.187845)">
        <path style="stroke:none" d="M 45.125 -45.1875 L 45.125 0 L 41.1875 0 L 12.140625 -36.65625 L 12.140625 0 L 7.359375 0 L 7.359375 -45.1875 L 11.296875 -45.1875 L 40.40625 -8.515625 L 40.40625 -45.1875 Z M 45.125 -45.1875 "/>
      </g>
    </g>
    <g style="fill:#333333;fill-opacity:1;">
      <g transform="translate(254.076234, 336.187845)">
        <path style="stroke:none" d="M 16.140625 -41.046875 L 0.265625 -41.046875 L 0.265625 -45.1875 L 36.796875 -45.1875 L 36.796875 -41.046875 L 20.90625 -41.046875 L 20.90625 0 L 16.140625 0 Z M 16.140625 -41.046875 "/>
      </g>
    </g>
    <g style="fill:#333333;fill-opacity:1;">
      <g transform="translate(288.868236, 336.187845)">
        <path style="stroke:none" d="M 35.6875 -12.0625 L 10.515625 -12.0625 L 5.09375 0 L 0.125 0 L 20.78125 -45.1875 L 25.5 -45.1875 L 46.15625 0 L 41.109375 0 Z M 33.953125 -15.9375 L 23.109375 -40.21875 L 12.265625 -15.9375 Z M 33.953125 -15.9375 "/>
      </g>
    </g>
    <g style="fill:#333333;fill-opacity:1;">
      <g transform="translate(336.118546, 336.187845)">
        <path style="stroke:none" d="M 12.203125 0.390625 C 9.617188 0.390625 7.226562 -0.164062 5.03125 -1.28125 C 2.84375 -2.40625 1.054688 -4 -0.328125 -6.0625 L 2.515625 -9.296875 C 5.015625 -5.597656 8.265625 -3.75 12.265625 -3.75 C 17.859375 -3.75 20.65625 -7.0625 20.65625 -13.6875 L 20.65625 -41.046875 L 4.125 -41.046875 L 4.125 -45.1875 L 25.359375 -45.1875 L 25.359375 -13.875 C 25.359375 -9.144531 24.25 -5.582031 22.03125 -3.1875 C 19.820312 -0.800781 16.546875 0.390625 12.203125 0.390625 Z M 12.203125 0.390625 "/>
      </g>
    </g>
  </g>
</svg>
